<svg width="92" height="92" viewBox="0 0 92 92" fill="none" xmlns="http://www.w3.org/2000/svg">
<rect width="92" height="92" fill="#F5F5F5"/>
<path fill-rule="evenodd" clip-rule="evenodd" d="M51.6185 4.02158C51.3459 4.69757 50.4652 5.85149 50 6.8001C49.4233 7.97558 46.077 15.2667 46.5962 16.0895C47.0402 15.9891 46.7179 16.1992 47.0224 15.7936C47.8124 14.7408 49.8848 10.1646 52.767 12.7269C54.0681 13.8836 55.9716 17.5115 56.8692 19.6649C58.0219 22.4305 58.7457 25.0757 59.4472 28.1032C60.0779 30.8256 60.7464 35.5039 61.2456 37.4315C61.3648 38.78 61.6924 40.2907 61.8848 41.6489C62.3109 44.654 62.8313 49.9473 62.6558 52.945L62.6367 54.9789C62.6413 54.9623 62.6599 55.0401 62.6786 55.0667C62.9314 55.2872 63.1088 55.1538 63.3293 54.7633C64.2601 53.1152 65.0979 50.7251 65.3388 48.835C65.7051 45.9593 65.9033 43.2344 65.9536 40.2641C66.0515 34.4855 65.9109 28.4949 65.0742 22.9372C64.3545 18.1564 62.9533 12.6062 61.0393 8.69543C59.9229 6.41416 58.8818 4.5475 57.4306 3.13318C56.7007 2.42185 55.6023 1.68137 54.1644 2.14359C53.544 2.34308 53.1615 2.61553 52.7393 2.96384C52.2891 3.33495 51.9602 3.85408 51.6185 4.02158Z" fill="#073B0B"/>
<path fill-rule="evenodd" clip-rule="evenodd" d="M62.8076 67.4421C65.3107 66.9794 67.9263 65.0073 69.6714 63.3284C70.6156 62.4201 71.3409 61.5147 72.0191 60.2826C73.5598 57.4842 72.5253 57.3692 71.9513 56.5847C74.2223 52.9636 76.7482 49.8413 78.8587 45.8461C79.8518 43.9659 80.8096 41.9143 81.4614 39.6464C81.8838 38.1768 83.1895 33.3987 82.0916 32.2866C81.0917 32.1482 80.5514 32.869 80.1869 33.4488C79.8245 34.0253 79.4552 34.9869 79.7292 35.8031C80.2183 38.1121 81.7168 37.5126 79.5239 42.651C78.6724 44.6465 77.5885 46.5889 76.4476 48.379C75.2829 50.2065 74.1462 51.9488 72.9487 53.6903C70.9598 56.5821 71.4643 56.3607 69.3756 56.825C68.7488 56.9642 68.3004 57.1777 67.713 57.3226C68.0675 56.5511 68.9587 55.4776 69.4598 54.7776C70.0668 53.9301 70.5993 53.1721 71.1919 52.2852C74.9995 46.5889 78.0418 42.0904 79.4149 35.0986C79.6212 34.3979 79.7317 33.5438 79.798 32.7697C79.9316 31.2101 79.8297 31.4023 79.4466 30.6291C77.8665 30.5221 76.2949 32.6673 77.3976 35.4198C77.9306 36.7499 78.2188 36.61 77.7539 38.2041C76.3223 43.1146 74.0448 46.4137 71.4883 50.4715C70.5206 52.0073 69.4819 53.4437 68.4591 54.9575C66.8698 57.3096 66.8653 57.6356 64.8991 58.7936C63.2392 59.7711 62.0528 61.023 60.7166 62.1274L56.8154 65.5179C54.0077 66.5668 55.4325 66.3545 51.8207 66.9704C48.8754 67.4727 43.667 68.997 40.806 70.0377C36.8721 71.4686 31.4329 73.158 27.484 73.8852C25.2108 74.3037 18.0975 75.5875 16.5817 74.1396C13.9715 71.6462 25.4968 62.1559 27.4103 60.7723C28.0612 60.3016 28.5274 59.8822 29.2147 59.4058L33.006 56.9751C33.8411 56.3141 33.4496 55.557 33.0246 54.7648L28.4666 46.8804C25.9873 42.7206 21.4209 34.7635 22.2573 28.259C22.5058 26.3261 23.1524 25.1148 24.6117 24.3971C26.4928 23.4721 27.9998 24.1582 29.1437 25.1859C30.3454 26.2655 31.0964 27.2618 32.1161 28.44C33.1936 29.6847 33.9057 30.6849 34.894 31.882C36.7673 34.1515 38.63 36.5328 40.4399 38.8998C44.3474 44.0108 52.2647 53.8552 54.3525 59.287C54.7263 60.2595 54.831 61.3133 55.1715 61.5167C55.6526 61.2592 55.6258 60.1632 55.6844 59.5258C55.8926 57.2686 55.7282 55.402 55.1156 53.2256C54.0746 49.527 50.9907 43.8109 49.0201 40.4274L45.6242 34.4372C45.2133 34.1293 43.4681 31.0786 43.0448 30.4295C40.5141 26.5481 37.5165 22.5757 34.2899 19.4543C32.5911 17.8112 29.5729 14.8783 26.1501 14.4131C23.26 14.0205 20.8351 15.3504 19.2142 17.3556C18.9393 17.6959 18.746 17.9045 18.5064 18.299L18.0644 19.042C17.9814 19.1521 17.9651 19.1651 17.8889 19.2413C17.887 19.9469 16.9628 20.97 16.9814 24.296C17.0052 28.5413 18.4722 35.7531 19.8961 39.3499C22.2156 45.2081 28.4005 52.8884 28.961 54.2364C28.6262 54.5122 25.562 55.4049 24.8789 55.6456C23.4924 56.1345 22.2936 56.5747 20.978 57.1725C15.665 59.5861 9.79722 63.6524 7.12754 69.0261C5.10557 73.0957 5.68612 75.6161 9.82261 77.9635C14.2795 80.4927 19.6689 80.9854 25.5268 79.9935C33.542 78.6363 41.0914 73.4297 48.5653 70.4203C49.6869 69.9686 50.7927 69.6308 51.8324 69.2062C51.6515 69.4655 51.1423 69.9614 50.9318 70.194C48.6825 72.6799 47.4743 75.7809 46.121 78.8985L41.8707 89.2076C41.7011 89.6904 41.6666 89.6114 41.8947 89.9343C42.4965 90.257 43.0983 89.3054 43.4791 88.9294C44.9313 87.4952 46.1913 86.2435 47.4358 84.6632C52.5237 78.2021 52.9216 75.0325 55.7093 71.0925C56.4089 70.1038 57.3874 69.0417 58.6383 68.5133C59.2851 68.2399 62.6855 67.574 62.8076 67.4421Z" fill="#033909"/>
</svg>
